<svg xmlns="http://www.w3.org/2000/svg" width="96.0" height="96.0" viewBox="0 0 192.0 192.0">
	<path fill="#859db6" d="M111.849 38.541C111.871 38.5137 111.893 38.487 111.914 38.459C112.746 37.3346 112.271 36.1168 114.108 35.8139C115.517 35.5814 118.696 35.0036 119.902 35.8725C121.655 37.1365 120.778 41.2403 122.355 41.9079L122.712 41.5083C122.588 39.8313 121.865 37.5867 122.863 36.121C123.407 35.6916 123.955 35.5516 124.647 35.6375C125.309 35.7196 125.967 35.9776 126.365 36.5357C127.276 37.8108 126.898 40.0887 128.505 40.7522L128.903 40.5865C129.246 39.1833 127.937 37.599 129.63 36.5899C130.041 36.3453 130.396 36.3322 130.838 36.4802C131.55 36.7186 132.574 37.6237 132.889 38.3131C133.125 38.8307 133.289 39.4299 133.423 39.9835C135.218 39.6928 137.168 39.2248 138.986 39.3514L139.128 39.3599C141.892 39.55 148.93 45.2594 150.857 47.524C151.307 48.0534 151.783 48.6397 151.714 49.3733C151.524 51.3738 148.316 54.2031 146.826 55.3261C145.201 56.5508 144.086 57.053 142.075 57.504C142.504 58.2503 147.88 62.2784 149.231 63.5827C160.552 74.5104 166.061 89.1188 161.842 104.7C159.347 113.915 153.611 121.396 145.332 126.123C137.357 130.618 127.923 131.765 119.103 129.311C117.89 128.975 116.654 128.589 115.478 128.143C115.736 131.763 115.601 135.433 115.594 139.061L115.611 157C115.623 158.651 115.431 160.758 115.755 162.347C115.971 163.405 116.955 164.413 116.78 165.508C116.291 166.035 115.983 166.191 115.252 166.218C108.269 166.476 101.197 166.267 94.2052 166.259C89.7926 166.254 85.127 166.552 80.7403 166.262C79.9392 166.21 78.7794 166.144 78.162 165.593C77.9327 165.389 77.9719 165.163 77.9378 164.872C78.0421 164.638 78.1768 164.401 78.3787 164.236C79.1555 163.599 80.2528 163.176 81.1271 162.669C82.6279 161.799 84.068 160.659 85.3347 159.476C87.9817 157.005 89.9791 154.004 91.4378 150.7C92.5751 148.124 93.3815 145.265 93.6646 142.46C93.9655 139.479 93.8213 136.4 93.8191 133.402L93.78 117.776L93.7935 70.3105C93.794 67.554 93.9525 64.8219 93.4873 62.0921C93.3162 61.0884 92.5966 58.7244 92.9337 57.8082C93.4598 56.3786 95.2464 55.5688 96.5705 55.0558C98.8593 54.1691 101.199 53.5367 103.638 53.2424C105.81 52.9802 109.243 53.3295 111.156 52.4795C111.436 51.3237 111.709 50.1939 112.202 49.1056C108.791 47.8291 105.348 46.3784 101.774 45.6462L101.884 45.3638C104.22 44.6002 109.818 47.1339 110.993 46.552C111.077 46.5102 111.293 46.1573 111.365 46.0634C111.368 45.4086 111.392 45.2646 110.993 44.7104C108.573 43.6282 99.0084 41.5012 97.9587 40.3814C100.901 40.1763 109.672 42.9822 111.455 42.3599C111.817 41.923 111.988 41.6322 111.913 41.0419C111.855 40.5848 111.65 40.2542 111.268 40.0112C110.887 39.7696 110.383 39.6586 109.952 39.5329C108.324 39.0758 106.678 38.6883 105.048 38.2401C104.491 38.0869 103.264 37.8344 102.98 37.3358C105.558 37.0221 109.434 37.5935 111.849 38.541ZM132.404 107.275C136.054 102.578 137.469 97.1004 136.726 91.1762C135.821 83.9663 131.83 77.7979 126.129 73.4102C122.446 70.5762 118.355 68.8029 113.724 68.3129C112.252 68.1572 110.708 68.2099 109.256 67.9862L109.301 93.3066C109.296 96.9191 108.803 102.444 109.515 105.869C109.687 106.696 110.294 107.431 110.883 108.01C113.629 110.711 117.799 112.304 121.628 112.255C125.89 112.199 129.483 110.285 132.404 107.275ZM99.5091 121.065C99.5498 121.238 99.5805 121.576 99.663 121.721C99.9828 122.281 104.876 127.098 105.531 127.526C105.692 125.404 105.425 123.266 105.564 121.137C103.546 121.251 101.523 121.226 99.5091 121.065ZM105.596 103.149C105.49 101.103 105.482 99.086 105.535 97.0383C103.63 97.2259 101.685 97.3128 99.7814 97.0452C100.075 98.4519 104.006 102.068 105.369 103.016C105.432 103.06 105.532 103.114 105.596 103.149ZM139.559 51.8788C142.154 51.6088 144.726 51.4418 147.334 51.3605C148.068 50.7911 148.747 50.288 149.252 49.4905L149.234 49.0221C148.874 49.009 148.5 48.9578 148.16 49.0951C146.155 49.3347 140.03 49.5505 138.872 51.0219C138.608 51.3559 138.629 51.4664 138.659 51.8794C138.997 51.943 139.23 52 139.559 51.8788ZM97.485 106.261C99.8074 106.171 102.215 106.423 104.513 106.229C103.052 104.622 99.1468 100.194 97.4588 99.3731C97.6258 101.681 97.573 103.951 97.485 106.261ZM129.196 116.883C130.589 115.869 131.874 114.856 133.106 113.645C133.272 112.889 133.828 111.31 133.469 110.629L133.15 110.436C131.879 111.489 130.581 112.436 129.207 113.351C129.065 114.324 128.672 115.817 128.918 116.752L129.196 116.883ZM95.0248 157.723C93.7129 157.735 92.3189 157.653 91.0193 157.81C90.8927 158.257 90.7686 158.417 91.0147 158.851C91.696 160.052 93.7151 162.39 94.9487 162.933C94.9132 161.199 94.9015 159.453 95.0248 157.723ZM101.254 88.1711C102.35 87.0651 103.424 85.909 104.589 84.8769C102.275 84.9411 99.9384 85.0758 97.6257 84.9468L97.45 91.8836C98.7577 90.6782 100.026 89.4595 101.254 88.1711ZM139.149 103.668C140.558 102.129 141.029 99.1831 141.003 97.1334C140.68 96.5335 140.566 96.5497 139.953 96.3357C139.413 97.3268 138.106 102.048 138.414 103.128C138.449 103.249 138.453 103.252 138.496 103.355L139.149 103.668ZM115.302 120.074L117.176 117.694L119.702 114.97C118.313 114.801 116.968 114.601 115.607 114.27C115.337 116.188 115.556 118.14 115.302 120.074ZM153.675 110.378C151.55 113.567 149.31 117.105 146.247 119.475L145.745 119.489C145.086 118.456 145.712 113.626 145.773 112.212C143.649 115.004 144.008 117.447 144.148 120.775C142.608 120.669 138.932 120.144 137.744 121.182C137.444 121.444 137.444 121.536 137.401 121.905C138.477 122.545 140.288 121.661 141.537 122.211L141.607 122.617C140.313 124.003 134.5 125.469 132.561 125.837C130.739 126.182 128.289 126.224 126.657 127.091L126.692 127.34C133.514 128.152 141.13 125.333 146.441 121.169C153.241 115.804 157.599 107.93 158.534 99.3191C159.795 88.4818 156.49 78.8895 149.774 70.4473C147.808 67.9755 138.147 58.584 135.1 58.0744C134.139 58.3053 132.112 58.6344 131.527 59.4854C131.467 59.5736 131.456 59.6038 131.414 59.6919C131.807 60.0938 132.131 60.2054 132.707 60.2134C133.62 60.2259 134.63 60.0088 135.537 59.8764C136.97 60.5898 140.842 63.018 141.356 64.5069L141.093 64.8756C140.198 64.8855 138.499 64.7052 137.733 65.1815C137.932 65.8005 138.375 66.0399 138.961 66.3245C139.867 66.7649 141.206 66.4543 142.184 66.4264C145.315 66.3372 148.442 71.1135 150.202 73.2909C148.28 73.1137 146.568 73.0222 144.711 73.623L144.442 73.9694C144.868 74.6121 145.908 74.8159 146.621 74.9652C147.991 75.252 149.637 75.0259 151.035 74.9479C153.051 77.2273 153.912 79.9292 155.392 82.5214C153.982 82.4732 149.572 82.0021 148.546 82.7912L148.45 83.3706C148.91 83.9114 149.158 84.0291 149.875 84.1062C151.74 84.3071 153.888 84.0929 155.786 84.105C156.588 87.447 157.631 91.8011 157.111 95.2079L156.801 95.5825C155.702 94.3821 151.167 88.7897 149.84 88.566C149.64 89.0088 149.656 89.1286 149.837 89.5864C150.736 91.8575 153.81 94.4609 155.62 96.0744C153.643 95.865 152.256 95.7865 150.374 96.5022L150.059 96.8711C150.685 97.5467 151.843 97.5868 152.736 97.6186C154.229 97.6718 155.734 97.5135 157.223 97.5822C156.844 99.841 156.388 105.46 154.72 107.026C153.371 106.655 150.77 99.8859 149.544 100.492L149.684 100.275L149.825 100.326L149.557 100.751C150.243 103.736 152.074 105.817 153.836 108.257C151.948 108.243 148.903 107.847 147.287 108.915L147.026 109.402L147.16 109.793C148.771 110.292 152.618 109.386 153.675 110.378ZM139.2 87.1211C138.571 89.286 139.817 91.9825 139.542 94.3683C139.877 94.4284 140.162 94.4525 140.501 94.4211C141.35 92.7086 141.334 90.7089 140.731 88.9078C140.402 87.9278 140.081 87.5701 139.2 87.1211ZM91.7503 163.321C91.1802 162.616 89.9937 160.751 89.2243 160.427C88.4565 161.114 86.8853 162.191 86.6226 163.141C87.2533 163.467 87.641 163.321 88.3369 163.245L91.7503 163.321ZM122.2 115.108C123.18 116.058 124.194 116.989 125.056 118.049L125.679 118.645L126.148 118.627C126.836 117.703 126.58 115.996 126.512 114.893L126.25 114.559L125.912 114.621C124.676 114.796 123.439 114.959 122.2 115.108ZM111.865 118.702L112.919 119.272C113.147 119.195 113.344 119.194 113.458 118.973C113.989 117.947 113.678 116.464 113.602 115.332L113.26 115.002C112.35 115.478 110.792 116.081 110.252 116.948C110.317 117.544 110.44 117.741 110.921 118.111C111.211 118.335 111.548 118.518 111.865 118.702ZM110.264 148.362C110.989 147.43 111.714 146.531 112.533 145.68C111.475 145.669 110.379 145.711 109.328 145.612C109.192 146.569 108.837 148.429 109.399 149.241C109.937 149.057 109.981 148.833 110.264 148.362ZM136.374 109.829C137.172 108.516 138.201 107.113 138.619 105.627C138.422 105.23 138.384 105.25 137.966 105.087C136.568 106.179 135.971 107.317 135.726 109.108C135.689 109.376 135.723 109.521 135.842 109.763L136.374 109.829ZM128.689 57.3439C129.161 56.9257 129.205 56.2036 128.787 55.731C128.369 55.2583 127.647 55.2142 127.174 55.6324C126.702 56.0506 126.658 56.7727 127.076 57.2453C127.494 57.7178 128.216 57.762 128.689 57.3439ZM112.417 139.885C112.176 138.432 112.284 137.197 112.504 135.749L108.871 135.753C109.63 137.305 110.662 138.706 111.919 139.89L112.417 139.885ZM112.083 149.668C111.446 150.462 109.767 152.142 109.783 153.119L109.992 153.286C110.625 153.258 111.413 153.374 111.883 152.897C112.382 152.389 112.515 151.627 112.482 150.946C112.456 150.408 112.459 150.07 112.083 149.668ZM93.1711 155.739C94.0278 155.415 94.4449 155.335 94.8536 154.461C95.2172 153.684 95.062 152.848 94.95 152.032L94.6386 151.665C94.0153 152.689 93.1629 153.833 92.8888 155.004C92.9701 155.261 93.0339 155.505 93.1711 155.739ZM123.471 120.029C123.559 119.389 123.452 118.868 123.034 118.353C122.782 118.043 122.392 117.76 122.023 117.617C121.941 118.414 121.729 119.082 122.114 119.803C122.592 119.95 122.971 120.012 123.471 120.029ZM119.235 53.166C119.323 53.7608 119.269 54.0815 119.774 54.468C120.899 55.3299 123.233 55.8905 124.616 56.0626C124.346 55.1524 124.108 54.6553 123.229 54.1658C122.195 53.5901 120.414 53.163 119.235 53.166ZM97.4185 116.303C98.5188 115.14 99.6069 113.962 100.739 112.829C102.116 111.517 103.473 110.168 104.906 108.918C102.464 108.96 100.01 109.05 97.5692 108.99C97.5824 111.407 97.6141 113.894 97.4185 116.303ZM112.58 155.444L108.953 155.53C109.229 156.672 110.911 159.108 111.954 159.702C112.093 159.782 112.261 159.813 112.418 159.833C112.243 158.362 112.235 156.894 112.58 155.444ZM139.18 85.3841C139.442 83.5569 138.576 81.5515 137.492 80.0965C137.168 79.6603 136.824 79.3123 136.368 79.0141L135.302 78.8833C135.67 80.0086 137.56 84.8006 138.459 85.2629C138.737 85.4062 138.874 85.4149 139.18 85.3841ZM97.4196 155.189C99.6451 154.863 101.849 155.203 104.064 155.024C103.182 153.721 98.6647 148.485 97.4188 148.073C97.5578 150.447 97.6652 152.816 97.4196 155.189ZM97.5884 75.1388C97.5274 77.5194 97.5846 79.916 97.4613 82.2924C99.7724 82.2857 102.117 82.2011 104.424 82.3046C103.707 80.9403 98.9491 75.8923 97.5884 75.1388ZM109.338 125.414C109.169 127.244 109.282 129.079 109.147 130.909C109.697 130.309 110.299 129.718 110.765 129.05L112.507 127.282C111.448 126.666 110.377 126.063 109.338 125.414ZM117.92 124.246C118.275 124.322 118.632 124.391 118.99 124.451C124.85 125.429 131.176 123.11 135.881 119.725C142.165 115.204 146.212 107.802 147.423 100.227C149.012 90.289 146.124 80.0091 140.257 71.9208C134.062 63.3803 123.974 57.3773 113.557 55.7553C106.888 54.7168 100.294 55.5573 94.7613 59.5876C97.6753 58.8442 100.428 57.6711 103.425 57.2267C112.895 55.8225 123.336 59.6835 130.863 65.321C138.45 71.0029 143.931 79.7667 145.253 89.1962C146.469 97.8677 144.693 106.381 139.325 113.423C135.229 118.796 129.667 122.263 122.963 123.161C119.713 123.48 116.54 123.018 113.326 122.585L113.281 122.755C114.645 123.558 116.32 124.205 117.92 124.246ZM103.774 157.684C101.662 157.734 99.5501 157.75 97.4382 157.731C97.4746 159.368 97.1483 162.131 97.908 163.57C99.7695 162.302 102.667 159.774 103.973 157.94L103.774 157.684ZM105.427 136.464C104.161 137.708 100.112 141.092 99.5624 142.585L99.7579 142.886L100.31 142.863C102.122 142.85 103.971 142.763 105.775 142.941C105.646 141.589 106.007 137.368 105.427 136.464ZM105.159 112.164C103.156 114.088 101.117 115.99 99.2058 118.006L99.1989 118.377C99.445 118.393 99.6261 118.449 99.8494 118.333C101.798 118.253 103.77 118.219 105.71 118.459C105.486 116.905 105.952 113.222 105.159 112.164ZM105.181 87.9359C104.189 88.9301 99.5677 93.1855 99.437 94.1353L99.7393 94.2487C101.669 94.2714 103.642 94.2127 105.557 94.4627C105.538 93.0481 105.892 88.9186 105.181 87.9359ZM98.6737 72.186C100.735 74.3625 103.017 77.237 105.523 78.8661C105.476 76.7394 105.49 74.6118 105.566 72.486C103.309 72.5658 100.902 72.5605 98.6737 72.186C99.571 70.2217 102.266 68.0629 104.183 67.0704C111.539 63.2616 122.063 66.7377 128.055 71.663C129.648 72.9727 132.87 76.8157 134.559 77.3478L134.887 77.1001C135.046 76.4514 134.663 75.9407 134.359 75.3947C129.343 69.6182 123.05 65.0478 115.317 63.8819C110.389 63.139 105.822 63.7105 101.772 66.7253C100.526 67.6522 98.0425 69.516 97.8025 71.155C98.0228 71.7783 98.1483 71.8321 98.6737 72.186ZM134.389 54.064C134.092 53.3185 133.895 53.0826 133.137 52.7488C130.759 51.7012 114.852 46.281 113.067 46.2226C113.205 46.8282 113.242 47.2973 113.792 47.6876C114.606 48.2641 133.155 54.0432 134.389 54.064ZM99.0687 145.56C100.406 147.802 103.355 150.655 105.365 152.369L105.903 152.429C105.458 150.19 105.664 147.884 105.845 145.623C103.69 145.743 101.2 145.938 99.0687 145.56ZM97.4877 133.252C97.5333 135.806 97.6131 138.293 97.2558 140.83C98.5344 139.665 99.7462 138.469 100.926 137.204C102.185 135.754 103.495 134.424 104.949 133.17C102.529 133.349 99.9025 133.519 97.4877 133.252ZM136.414 41.5749C133.932 42.0155 131.642 42.3513 129.11 42.2838C132.456 44.2528 135.738 46.1271 138.75 48.6041C139.738 48.484 140.738 48.3912 141.719 48.2238C143.854 47.8756 145.936 47.5802 148.101 47.4823C145.305 45.4974 140.004 40.9827 136.584 41.544C136.527 41.5534 136.471 41.5646 136.414 41.5749ZM97.4399 123.066C97.5723 125.549 97.6691 128.064 97.4155 130.542C99.8328 130.472 102.232 130.453 104.65 130.521C103.3 129.157 98.8404 123.568 97.4399 123.066ZM114.251 37.3103C113.772 39.7607 113.567 42.3241 113.351 44.8117C117.871 46.0198 122.286 47.4622 126.708 48.9852C129.369 49.902 132.348 51.3128 135.108 51.7288C135.521 51.7911 135.844 51.6021 136.191 51.4057C136.37 51.3028 136.546 51.1945 136.718 51.081C137.034 50.5514 137.307 50.2863 137.265 49.6621C135.398 48.1431 131.174 45.1044 128.9 44.5768C128.484 44.6528 128.062 44.7125 127.657 44.8375C125.598 45.4732 120.334 43.4531 118.343 42.4022C116.361 41.356 115.853 37.8572 114.251 37.3103Z" />
	<path fill="#859db6" d="M109.952 39.5329C108.324 39.0758 106.678 38.6883 105.048 38.2401C104.491 38.0869 103.264 37.8344 102.98 37.3358C105.558 37.0221 109.434 37.5935 111.849 38.541C111.787 38.5509 111.724 38.5616 111.662 38.5708C110.607 38.7255 109.3 38.1084 108.402 38.393C108.866 39.0622 109.693 38.7349 109.952 39.5329Z" />
	<path fill="#859db6" fill-opacity="0.0078431377" d="M94.7613 59.5876C100.294 55.5573 106.888 54.7168 113.557 55.7553C123.974 57.3773 134.062 63.3803 140.257 71.9208C146.124 80.0091 149.012 90.289 147.423 100.227C146.212 107.802 142.165 115.204 135.881 119.725C131.176 123.11 124.85 125.429 118.99 124.451C118.632 124.391 118.275 124.322 117.92 124.246C119.448 124.005 121.114 124.527 122.61 124.186C123.058 124.083 123.093 124.037 123.327 123.651L122.963 123.161C129.667 122.263 135.229 118.796 139.325 113.423C144.693 106.381 146.469 97.8677 145.253 89.1962C143.931 79.7667 138.45 71.0029 130.863 65.321C123.336 59.6835 112.895 55.8225 103.425 57.2267C100.428 57.6711 97.6753 58.8442 94.7613 59.5876Z" />
	<defs>
		<linearGradient id="gradient_0" gradientUnits="userSpaceOnUse" x1="118.45586" y1="123.94993" x2="118.51556" y2="123.0032">
			<stop offset="0" stop-color="#859db6" stop-opacity="0" />
			<stop offset="1" stop-color="#859db6" stop-opacity="0.047058824" />
		</linearGradient>
	</defs>
	<path fill="url(#gradient_0)" d="M117.92 124.246C116.32 124.205 114.645 123.558 113.281 122.755L113.326 122.585C116.54 123.018 119.713 123.48 122.963 123.161L123.327 123.651C123.093 124.037 123.058 124.083 122.61 124.186C121.114 124.527 119.448 124.005 117.92 124.246Z" />
	<path fill="#859db6" fill-opacity="0.0078431377" d="M94.6386 151.665L94.95 152.032C95.062 152.848 95.2172 153.684 94.8536 154.461C94.4449 155.335 94.0278 155.415 93.1711 155.739C93.0339 155.505 92.9701 155.261 92.8888 155.004C93.1629 153.833 94.0153 152.689 94.6386 151.665Z" />
	<path fill="#859db6" d="M70.4233 26.107C73.1253 26.0732 75.8276 26.1268 78.526 26.268C80.5731 27.664 83.6643 30.7414 84.9438 32.854L84.6833 33.2364C83.7097 33.7911 82.2926 33.7059 81.1919 33.7745C76.8794 31.1182 76.3123 30.9048 71.2556 31.8295C69.8401 33.2189 68.5502 34.841 67.2335 36.3302C68.9407 38.8526 69.2043 41.0309 68.9083 44.0086C70.5138 45.3112 72.326 46.4035 74.0483 47.5461C75.5253 47.432 77.0078 47.3581 78.4865 47.2652C79.7686 46.3583 80.9726 45.2891 82.1929 44.2982C83.1362 44.2624 85.0093 44.0027 85.7992 44.5238L85.824 44.9017C85.0017 46.5574 80.9151 51.6858 79.2166 52.3149C78.0023 52.7647 76.4184 52.7878 75.1306 52.9465C68.1755 53.8037 69.177 51.4946 64.0013 49.0739L63.9022 49.0284C62.972 49.2564 61.55 49.4445 60.7616 49.9763C58.7921 51.3047 46.5898 64.8004 44.7838 67.1041C44.6259 69.6755 44.1424 71.6729 43.2171 74.0664C44.8647 77.0596 46.9837 79.8784 48.9018 82.7055C51.633 86.7559 54.3253 90.8323 56.9783 94.9342C58.0972 96.6601 58.4 98.7147 59.6475 100.407C61.476 102.888 63.8877 105.138 66.0033 107.386C65.9671 101.825 65.4244 67.2231 66.2414 65.2897C66.3497 65.0334 66.39 64.9451 66.6448 64.8317C67.8629 64.2897 84.3333 64.2684 85.6329 64.7899C86.2426 67.9027 85.9512 71.4498 85.9523 74.6245L85.9537 90.6681L85.9699 116.534C85.9705 121.948 86.3342 127.672 85.4893 133.034C84.9138 136.686 83.0625 140.145 81.2965 143.35C79.3883 146.699 76.1253 149.784 72.9355 151.894C66.7403 156.032 59.1391 157.499 51.8489 155.965C44.239 154.467 37.5478 149.98 33.2745 143.507C29.4831 137.729 27.3114 129.467 28.7369 122.58C34.6795 122.144 41.1986 122.133 47.1452 122.552C47.188 123.786 47.241 125.018 47.3042 126.25C47.4992 130.132 47.8755 133.535 50.946 136.281C53.0558 138.168 55.8499 138.96 58.6491 138.804C61.5249 138.645 64.0832 137.478 66.0033 135.311C69.3391 131.545 69.2303 126.195 68.9558 121.473C66.3753 119.195 62.2487 117.397 59.2664 115.531C55.953 113.458 52.7465 110.931 49.3209 109.079C48.0189 108.375 45.9476 108.503 44.8637 107.605C43.0501 106.104 33.0386 83.5991 30.2594 79.4456C27.5921 75.4591 23.7079 75.0067 23.3402 69.2028C23.1554 66.2866 24.2698 63.0634 26.1998 60.8687C28.603 58.1359 32.194 58.3443 34.8864 56.1595C38.5975 53.148 41.9964 49.6349 45.4963 46.3789C47.5125 44.5032 49.8036 42.7986 51.6291 40.736C53.0346 39.1479 53.7086 37.0207 55.1219 35.4582C56.717 33.6949 59.0041 33.4237 60.8589 32.1029C63.1985 30.4367 64.9685 27.907 67.4956 26.5001C68.2468 26.0818 69.5685 26.1487 70.4233 26.107ZM42.233 127.853C39.4405 127.862 36.6479 127.857 33.8554 127.837C34.0328 131.885 34.9224 135.237 36.5015 138.957C39.4799 144.506 44.5598 148.628 50.6032 150.401C56.5556 152.144 63.2922 151.48 68.727 148.467C74.0961 145.454 78.0365 140.419 79.6692 134.483C81.4803 128.142 80.686 118.276 80.6802 111.448C80.6685 97.6672 80.215 83.7226 80.8179 69.9627C77.5512 70.0387 74.0915 70.1757 70.8349 69.9222C71.2916 79.8534 70.9665 89.9283 70.955 99.875C70.9513 103.051 70.749 106.329 70.9255 109.493C71.057 111.85 72.2563 114.024 73.0167 116.218C74.2213 119.695 74.4223 123.966 74.2132 127.61C73.9772 131.723 72.8239 135.64 69.9953 138.729C67.1798 141.836 63.2453 143.698 59.0573 143.905C54.6042 144.086 50.2938 142.664 46.9943 139.618C43.9956 136.849 42.3955 132.76 42.2486 128.727C42.2374 128.436 42.2322 128.145 42.233 127.853ZM59.721 38.2379C58.2997 39.1293 57.8794 40.0813 57.2935 41.5709C57.8798 42.7896 58.4574 44.0742 59.8448 44.5441C60.5757 44.7916 61.2805 44.7869 62.0271 44.6372C63.0734 44.0434 64.0235 43.297 64.3549 42.0788C64.56 41.3246 64.4294 40.5599 64.0121 39.9027C63.4661 39.0428 62.5253 38.509 61.5415 38.3131C60.9277 38.1909 60.3417 38.1884 59.721 38.2379ZM47.0084 102.864L49.1407 101.52C50.9047 100.476 52.6725 99.4583 54.123 97.9839C51.117 93.1246 47.774 88.44 44.5887 83.695C43.4164 81.9487 42.0408 79.2997 40.6992 77.7771C40.5593 77.6183 40.3527 77.5276 40.1558 77.4641L39.9189 77.4954C38.9378 78.0264 36.5043 78.8819 35.9023 79.7168C36.4675 81.7979 37.6732 83.848 38.6415 85.7686C41.1275 90.6998 45.374 97.9559 47.0084 102.864ZM51.1211 46.4279C46.4722 49.98 42.8091 54.7954 38.172 58.3997C39.7854 59.3512 41.3492 60.2692 42.5967 61.6926C43.5803 61.3801 53.7123 50.9853 54.7716 49.6656C53.7721 48.8475 52.1883 46.792 51.1211 46.4279ZM32.8189 62.8882C29.8145 63.6089 27.957 66.6215 28.6623 69.6295C29.3677 72.6375 32.3709 74.5103 35.3825 73.8202C38.4157 73.1251 40.305 70.0956 39.5945 67.0659C38.884 64.0362 35.8449 62.1624 32.8189 62.8882Z" />
	<path fill="#859db6" d="M33.178 64.8225C34.4565 64.4773 35.8217 64.8528 36.7438 65.8034C37.6658 66.754 37.9997 68.13 37.6158 69.3974C37.2318 70.6649 36.1906 71.6243 34.896 71.9034C32.9641 72.3199 31.0522 71.1208 30.5863 69.2002C30.1203 67.2796 31.27 65.3376 33.178 64.8225Z" />
</svg>