<svg
  width="1em"
  height="1em"
  preserveAspectRatio="none"
  xmlns="http://www.w3.org/2000/svg"
  viewBox="0 0 1440 320"
>
  <path
    d="M0,240
       L80,240
       C100,240,130,180,170,110
       C210,60,250,140,290,190
       C330,250,360,150,400,100
       C440,50,470,130,500,200
       C530,270,570,210,610,170
       C650,130,690,180,720,220
       C750,260,780,160,820,120
       C860,80,900,180,940,230
       C980,280,1020,200,1060,160
       C1100,120,1140,150,1180,190
       C1220,230,1250,160,1280,130
       C1310,100,1350,160,1380,200
       C1400,220,1420,240,1440,240
       L1440,0L0,0Z"
    fill="black"
  />
</svg>
